<svg width="19" height="20" viewBox="0 0 19 20" fill="none" xmlns="http://www.w3.org/2000/svg">
    <path d="M16.3855 3.57474H2.14317C1.30872 3.57474 0.632263 4.2512 0.632263 5.08565V17.6183C0.632263 18.4527 1.30872 19.1292 2.14317 19.1292H16.3855C17.2199 19.1292 17.8964 18.4527 17.8964 17.6183V5.08565C17.8964 4.2512 17.2199 3.57474 16.3855 3.57474Z" stroke="#00AA6C" stroke-width="1.07901" stroke-miterlimit="10"/>
    <path d="M4.94247 0.871002V6.33414" stroke="#00AA6C" stroke-width="1.07901" stroke-miterlimit="10"/>
    <path d="M13.5862 0.871002V6.33414" stroke="#00AA6C" stroke-width="1.07901" stroke-miterlimit="10"/>
    <path d="M0.918671 8.4494H17.7613" stroke="#00AA6C" stroke-width="1.07901" stroke-miterlimit="10"/>
    <path d="M4.73551 10.6359H4.13115C3.79297 10.6359 3.51883 10.9101 3.51883 11.2482V11.8526C3.51883 12.1908 3.79297 12.4649 4.13115 12.4649H4.73551C5.07368 12.4649 5.34783 12.1908 5.34783 11.8526V11.2482C5.34783 10.9101 5.07368 10.6359 4.73551 10.6359Z" fill="#00AA6C"/>
    <path d="M9.57053 10.6359H8.96617C8.62799 10.6359 8.35385 10.9101 8.35385 11.2482V11.8526C8.35385 12.1908 8.62799 12.4649 8.96617 12.4649H9.57053C9.9087 12.4649 10.1828 12.1908 10.1828 11.8526V11.2482C10.1828 10.9101 9.9087 10.6359 9.57053 10.6359Z" fill="#00AA6C"/>
    <path d="M14.3976 10.6359H13.7932C13.4551 10.6359 13.1809 10.9101 13.1809 11.2482V11.8526C13.1809 12.1908 13.4551 12.4649 13.7932 12.4649H14.3976C14.7358 12.4649 15.0099 12.1908 15.0099 11.8526V11.2482C15.0099 10.9101 14.7358 10.6359 14.3976 10.6359Z" fill="#00AA6C"/>
    <path d="M4.73551 14.7234H4.13115C3.79297 14.7234 3.51883 14.9975 3.51883 15.3357V15.94C3.51883 16.2782 3.79297 16.5524 4.13115 16.5524H4.73551C5.07368 16.5524 5.34783 16.2782 5.34783 15.94V15.3357C5.34783 14.9975 5.07368 14.7234 4.73551 14.7234Z" fill="#00AA6C"/>
    <path d="M9.57053 14.7234H8.96617C8.62799 14.7234 8.35385 14.9975 8.35385 15.3357V15.94C8.35385 16.2782 8.62799 16.5524 8.96617 16.5524H9.57053C9.9087 16.5524 10.1828 16.2782 10.1828 15.94V15.3357C10.1828 14.9975 9.9087 14.7234 9.57053 14.7234Z" fill="#00AA6C"/>
    <path d="M14.3976 14.7234H13.7932C13.4551 14.7234 13.1809 14.9975 13.1809 15.3357V15.94C13.1809 16.2782 13.4551 16.5524 13.7932 16.5524H14.3976C14.7358 16.5524 15.0099 16.2782 15.0099 15.94V15.3357C15.0099 14.9975 14.7358 14.7234 14.3976 14.7234Z" fill="#00AA6C"/>
</svg>
