<svg width="18" height="25" viewBox="0 0 18 25" fill="none" xmlns="http://www.w3.org/2000/svg">
    <g clip-path="url(#clip0_1_110)">
        <path d="M1.83001 6.68001C1.48001 6.40001 1.17001 6.05001 0.940009 5.64001C9.29832e-06 3.97001 0.610009 1.86001 2.28001 0.940013C3.95001 0.0200131 6.05001 0.610013 6.98001 2.28001C7.67001 3.52001 7.52001 4.99001 6.71001 6.05001" stroke="#00AA6C" stroke-miterlimit="10"/>
        <path d="M6.67 7.03C7.33274 7.03 7.87 6.49275 7.87 5.83C7.87 5.16726 7.33274 4.63 6.67 4.63C6.00726 4.63 5.47 5.16726 5.47 5.83C5.47 6.49275 6.00726 7.03 6.67 7.03Z" fill="#00AA6C"/>
        <path d="M12.99 5.15C11.42 2.32 7.85 1.3 5.02 2.87C2.19 4.44 1.17 8.01 2.74 10.84C4 13.11 6.55 14.21 8.97 13.75L13.64 22.16L16.7 23.89L16.83 20.38L16 18.88L15.06 19.4L14.08 17.63L15.02 17.11L14.25 15.73L13.31 16.25L12.31 14.46L13.25 13.94L12.16 11.98C13.84 10.17 14.25 7.42 12.98 5.15H12.99Z" stroke="#00AA6C" stroke-miterlimit="10"/>
    </g>
    <defs>
        <clipPath id="clip0_1_110">
            <rect width="17.35" height="24.73" fill="white"/>
        </clipPath>
    </defs>
</svg>
