<svg width="23" height="22" viewBox="0 0 23 22" fill="none" xmlns="http://www.w3.org/2000/svg">
    <path d="M7.21 0.5H2.77C1.51631 0.5 0.5 1.51631 0.5 2.77C0.5 4.02369 1.51631 5.04 2.77 5.04H7.21C8.46369 5.04 9.48 4.02369 9.48 2.77C9.48 1.51631 8.46369 0.5 7.21 0.5Z" stroke="#00AA6C" stroke-miterlimit="10"/>
    <path d="M5.94988 17.46H3.87988V5.04004" stroke="#00AA6C" stroke-miterlimit="10"/>
    <path d="M22.4502 17.46H10.9502" stroke="#00AA6C" stroke-miterlimit="10"/>
    <path d="M8.08977 20.62C9.51466 20.62 10.6698 19.4649 10.6698 18.04C10.6698 16.6151 9.51466 15.46 8.08977 15.46C6.66487 15.46 5.50977 16.6151 5.50977 18.04C5.50977 19.4649 6.66487 20.62 8.08977 20.62Z" stroke="#00AA6C" stroke-miterlimit="10"/>
    <path d="M15.2799 20.3599C15.8819 20.3599 16.3699 19.8719 16.3699 19.2699C16.3699 18.6679 15.8819 18.1799 15.2799 18.1799C14.678 18.1799 14.1899 18.6679 14.1899 19.2699C14.1899 19.8719 14.678 20.3599 15.2799 20.3599Z" stroke="#00AA6C" stroke-miterlimit="10"/>
    <path d="M19.6598 20.3599C20.2618 20.3599 20.7498 19.8719 20.7498 19.2699C20.7498 18.6679 20.2618 18.1799 19.6598 18.1799C19.0578 18.1799 18.5698 18.6679 18.5698 19.2699C18.5698 19.8719 19.0578 20.3599 19.6598 20.3599Z" stroke="#00AA6C" stroke-miterlimit="10"/>
    <path d="M6.87012 12.0601H9.32012C10.1501 12.0601 10.9401 12.3901 11.5301 12.9701C12.1201 13.5601 12.4401 14.3501 12.4401 15.1801V17.3801" stroke="#00AA6C" stroke-miterlimit="10"/>
    <path d="M7.37012 12.0601V15.5501" stroke="#00AA6C" stroke-miterlimit="10"/>
    <path d="M20.9199 10.6399H14.1899V17.3699H20.9199V10.6399Z" stroke="#00AA6C" stroke-miterlimit="10"/>
    <path d="M17.5098 10.5601V14.4701" stroke="#00AA6C" stroke-miterlimit="10"/>
    <path d="M20.9199 3.69995H14.1899V10.43H20.9199V3.69995Z" stroke="#00AA6C" stroke-miterlimit="10"/>
    <path d="M17.5098 3.61011V7.52011" stroke="#00AA6C" stroke-miterlimit="10"/>
</svg>
